<svg xmlns="http://www.w3.org/2000/svg" width="833.776" height="66.901" viewBox="0 0 232.085 18.622"><text xml:space="preserve" x="30.82" y="128.378" style="font-size:3.175px;fill:#000;stroke:#fffdfd;stroke-width:.343958" transform="translate(-2.97 -115.632)"/><g aria-label="tjctf{pretty_canvas_577f7045}" style="font-size:3.175px;white-space:pre;inline-size:109.593;stroke:#fffdfd;stroke-width:.343958"><path d="M3.93 118.036q.063 0 .13-.01.067-.013.108-.026v.213q-.044.022-.127.035-.082.016-.159.016-.133 0-.247-.044-.111-.048-.181-.162-.07-.115-.07-.321v-.99h-.241v-.134l.244-.111.111-.362h.165v.39h.492v.216h-.492v.985q0 .155.073.231.077.073.194.073z" style="stroke:#000" transform="matrix(5.26817 0 0 5.26817 -15.65 -609.168)"/><path d="M4.486 116.07q0-.092.047-.133.048-.044.118-.044.063 0 .11.044.052.041.052.134 0 .088-.051.133-.048.044-.111.044-.07 0-.118-.044-.047-.045-.047-.134zm-.178 2.925q-.08 0-.14-.013-.06-.01-.105-.025v-.226q.048.013.099.022.05.01.11.01.102 0 .17-.057.066-.054.066-.21v-1.965h.28v1.956q0 .238-.115.372-.114.136-.365.136zM6.01 118.264q-.226 0-.404-.092-.174-.092-.276-.285-.098-.194-.098-.496 0-.314.105-.51.104-.198.282-.29.181-.092.41-.092.13 0 .25.029.121.025.197.063l-.085.232q-.077-.029-.178-.054-.102-.025-.19-.025-.502 0-.502.644 0 .308.12.473.124.162.365.162.14 0 .245-.029.108-.028.197-.07v.248q-.086.045-.19.067-.102.025-.248.025zM7.42 118.036q.063 0 .13-.01.066-.013.107-.026v.213q-.044.022-.127.035-.082.016-.158.016-.134 0-.248-.044-.111-.048-.18-.162-.07-.115-.07-.321v-.99h-.242v-.134l.244-.111.112-.362h.165v.39h.492v.216h-.492v.985q0 .155.073.231.076.073.193.073zM8.781 116.747h-.428v1.486h-.28v-1.486h-.298v-.13l.298-.096v-.098q0-.33.146-.473.146-.146.407-.146.101 0 .184.019.086.016.146.038l-.073.219q-.05-.016-.117-.032t-.137-.016q-.14 0-.21.096-.066.092-.066.292v.11h.428zM9.924 118.734q-.292-.003-.46-.127-.168-.123-.168-.377v-.467q0-.162-.102-.229-.098-.07-.286-.07v-.231q.188-.004.286-.07.102-.067.102-.226v-.47q0-.254.174-.378.175-.123.454-.123v.228q-.165.003-.26.073-.092.07-.092.226v.457q0 .327-.346.387v.02q.346.06.346.387v.466q0 .156.092.223.092.07.26.073zM11.105 116.5q.315 0 .505.218.194.22.194.66 0 .436-.194.661-.19.225-.508.225-.197 0-.327-.073-.127-.076-.2-.174h-.019q.007.054.013.136.006.083.006.143v.699h-.28v-2.464h.23l.038.232h.012q.076-.111.2-.188.124-.076.33-.076zm-.05.234q-.26 0-.369.146-.104.146-.11.445v.054q0 .314.1.485.106.169.385.169.156 0 .254-.086.102-.086.15-.232.05-.149.05-.34 0-.292-.114-.466-.111-.175-.346-.175zM13.042 116.5q.048 0 .102.005.057.003.098.013l-.035.257q-.04-.01-.092-.016-.047-.006-.092-.006-.13 0-.244.073-.115.07-.184.2-.067.127-.067.299v.908h-.28v-1.702h.23l.03.311h.014q.082-.14.212-.241.13-.102.308-.102zM14.153 116.5q.22 0 .375.094.159.096.241.27.086.172.086.403v.169H13.69q.006.289.146.441.143.15.397.15.162 0 .286-.03.127-.031.26-.088v.244q-.13.057-.257.083-.127.028-.302.028-.241 0-.428-.098-.185-.098-.29-.292-.101-.197-.101-.48 0-.279.092-.479.095-.2.264-.308.171-.108.396-.108zm-.003.228q-.2 0-.317.13-.115.127-.137.355h.867q-.003-.215-.102-.349-.098-.136-.31-.136zM15.855 118.036q.064 0 .13-.01.067-.013.108-.026v.213q-.044.022-.127.035-.082.016-.158.016-.134 0-.248-.044-.111-.048-.181-.162-.07-.115-.07-.321v-.99h-.241v-.134l.244-.111.111-.362h.166v.39h.492v.216h-.492v.985q0 .155.073.231.076.073.193.073zM17.001 118.036q.064 0 .13-.01.067-.013.109-.026v.213q-.045.022-.127.035-.083.016-.16.016-.133 0-.247-.044-.11-.048-.18-.162-.07-.115-.07-.321v-.99h-.242v-.134l.245-.111.11-.362h.166v.39h.492v.216h-.492v.985q0 .155.073.231.076.073.193.073zM17.313 116.53h.298l.368.97q.048.126.086.244.038.114.057.219h.013q.019-.08.06-.207l.086-.26.346-.965h.302l-.734 1.937q-.089.24-.232.384-.14.143-.387.143-.076 0-.133-.01-.057-.006-.099-.016v-.222l.083.012q.05.006.105.006.146 0 .235-.082.092-.083.143-.22l.088-.225zM20.345 118.722h-1.423v-.204h1.423zM21.29 118.264q-.225 0-.402-.092-.175-.092-.277-.285-.098-.194-.098-.496 0-.314.105-.51.105-.198.282-.29.181-.092.41-.092.13 0 .25.029.121.025.198.063l-.086.232q-.076-.029-.178-.054-.102-.025-.19-.025-.502 0-.502.644 0 .308.12.473.124.162.366.162.14 0 .244-.029.108-.028.197-.07v.248q-.086.045-.19.067-.102.025-.248.025zM22.777 116.502q.31 0 .46.137.15.136.15.435v1.159h-.204l-.054-.242h-.012q-.112.14-.235.207-.121.066-.337.066-.232 0-.384-.12-.153-.124-.153-.384 0-.254.2-.39.2-.14.616-.153l.29-.01v-.102q0-.213-.093-.295-.092-.083-.26-.083-.133 0-.254.042-.12.038-.226.089l-.085-.21q.11-.06.263-.102.153-.044.318-.044zm.082.908q-.317.013-.441.102-.12.089-.12.25 0 .144.085.21.089.067.226.067.215 0 .358-.117.143-.121.143-.369v-.152zM24.733 116.5q.304 0 .46.148.156.146.156.477v1.108h-.277v-1.09q0-.409-.38-.409-.283 0-.391.159-.108.159-.108.457v.883h-.28v-1.702h.226l.041.232h.016q.083-.134.229-.197.146-.067.308-.067zM26.25 118.233l-.644-1.702h.298l.362 1.003q.026.07.054.156.029.085.05.165.023.076.033.13h.012q.013-.054.035-.133l.054-.165q.032-.086.054-.153l.362-1.003h.299l-.648 1.702zM28.133 116.502q.311 0 .46.137.15.136.15.435v1.159h-.204l-.054-.242h-.012q-.111.14-.235.207-.12.066-.337.066-.232 0-.384-.12-.152-.124-.152-.384 0-.254.2-.39.2-.14.616-.153l.289-.01v-.102q0-.213-.093-.295-.092-.083-.26-.083-.133 0-.254.042-.12.038-.225.089l-.086-.21q.111-.06.263-.102.153-.044.318-.044zm.083.908q-.318.013-.442.102-.12.089-.12.25 0 .144.085.21.09.067.226.067.216 0 .359-.117.142-.121.142-.369v-.152zM30.378 117.763q0 .247-.184.374-.185.127-.496.127-.178 0-.308-.028-.127-.029-.225-.08v-.254q.101.051.244.096.146.041.296.041.212 0 .308-.067.095-.07.095-.184 0-.063-.035-.114-.035-.05-.127-.102-.089-.05-.257-.114-.165-.064-.283-.127-.117-.064-.18-.152-.064-.09-.064-.229 0-.216.174-.333.178-.118.464-.118.155 0 .289.032.136.028.254.082l-.095.223q-.108-.045-.226-.077-.117-.031-.241-.031-.172 0-.264.057-.089.054-.089.15 0 .069.042.12.041.047.136.095.099.044.26.108.162.06.277.124.114.063.174.155.06.09.06.226zM31.937 118.722h-1.423v-.204h1.423zM32.803 116.842q.35 0 .556.175.206.174.206.492 0 .352-.225.555-.222.2-.622.2-.175 0-.33-.031-.153-.032-.258-.092v-.264q.115.07.277.111.165.038.314.038.25 0 .403-.117.156-.12.156-.372 0-.222-.137-.34-.136-.12-.432-.12-.089 0-.203.016-.114.016-.184.032l-.14-.09.086-1.07h1.137v.255h-.899l-.054.657q.054-.01.146-.022.092-.013.203-.013zM34.178 118.233l.93-2.013h-1.222v-.254h1.52v.216l-.92 2.05zM35.994 118.233l.93-2.013h-1.222v-.254h1.521v.216l-.92 2.05zM38.433 116.747h-.429v1.486h-.28v-1.486h-.298v-.13l.299-.096v-.098q0-.33.146-.473.146-.146.406-.146.102 0 .184.019.086.016.146.038l-.073.219q-.05-.016-.117-.032t-.137-.016q-.14 0-.21.096-.066.092-.066.292v.11h.429zM38.903 118.233l.93-2.013H38.61v-.254h1.52v.216l-.92 2.05zM41.947 117.096q0 .365-.076.629-.076.26-.241.4-.165.14-.438.14-.384 0-.569-.309-.18-.31-.18-.86 0-.368.073-.629.076-.26.24-.396.166-.14.436-.14.38 0 .568.308.187.305.187.857zm-1.225 0q0 .467.105.699.108.231.365.231.254 0 .362-.228.11-.232.11-.702 0-.464-.11-.695-.108-.232-.362-.232-.257 0-.365.232-.105.231-.105.695zM43.856 117.718h-.33v.515h-.27v-.515H42.17v-.238l1.066-1.527h.29v1.515h.33zm-.6-.965q0-.165.006-.28l.01-.222h-.013q-.026.06-.064.13-.038.07-.073.118l-.68.969h.813zM44.792 116.842q.35 0 .556.175.206.174.206.492 0 .352-.225.555-.222.2-.622.2-.175 0-.33-.031-.153-.032-.258-.092v-.264q.114.07.276.111.165.038.315.038.25 0 .403-.117.155-.12.155-.372 0-.222-.136-.34-.137-.12-.432-.12-.089 0-.203.016-.114.016-.184.032l-.14-.09.086-1.07h1.137v.255h-.899l-.054.657q.054-.01.146-.022.092-.013.203-.013zM45.837 118.506q.165-.006.257-.076.095-.067.095-.223v-.46q0-.327.346-.387v-.02q-.346-.06-.346-.387v-.463q0-.156-.092-.223-.092-.07-.26-.073v-.228q.292.003.46.127.168.124.168.378v.463q0 .162.099.232.101.067.289.067v.231q-.188.003-.29.07-.098.067-.098.226v.473q0 .25-.174.374-.175.127-.454.127z" style="stroke:#000" transform="matrix(5.26817 0 0 5.26817 -15.65 -609.168)"/></g></svg>